<svg width="512" height="344" viewBox="0 0 512 344" fill="none" xmlns="http://www.w3.org/2000/svg">
<g clip-path="url(#clip0_16060_8260)">
<path d="M0 8C0 3.58173 3.58172 0 8 0H504C508.418 0 512 3.58172 512 8V336C512 340.418 508.418 344 504 344H8C3.58172 344 0 340.418 0 336V8Z" fill="white"/>
<path d="M50.7188 66.2734C45.4141 66.2734 41.5039 62.3633 41.5039 55.8281C41.5039 49.2793 45.4414 45.3555 50.7188 45.3555C55.0801 45.3555 58.5117 47.9121 59.1816 52.2871H55.8594C55.3809 49.7441 53.2754 48.3359 50.7598 48.3359C47.3145 48.3359 44.7852 51.002 44.7852 55.8281C44.7852 60.6816 47.3281 63.293 50.7598 63.293C53.2617 63.293 55.3672 61.8711 55.873 59.3418H59.1953C58.5801 63.3203 55.3262 66.2734 50.7188 66.2734ZM68.0391 66.3145C63.6777 66.3145 60.8477 63.1562 60.8477 58.4395C60.8477 53.6816 63.6777 50.5234 68.0391 50.5234C72.4004 50.5234 75.2441 53.6816 75.2441 58.4395C75.2441 63.1562 72.4004 66.3145 68.0391 66.3145ZM68.0391 63.6621C70.7188 63.6621 72.0039 61.2969 72.0039 58.4395C72.0039 55.5547 70.7188 53.1758 68.0391 53.1758C65.373 53.1758 64.0879 55.541 64.0879 58.4395C64.0879 61.2969 65.373 63.6621 68.0391 63.6621ZM77.498 66V50.7148H80.5195L80.6016 53.5586C81.3809 51.4395 83.1035 50.4551 84.9082 50.4551C86.8906 50.4551 88.2031 51.6309 88.8184 53.709C89.6113 51.5898 91.5117 50.4551 93.6855 50.4551C96.3926 50.4551 98.5254 52.2461 98.5254 55.6914V66H95.3262V56.0742C95.3262 54.0918 94.0547 53.2305 92.5371 53.2305C90.6914 53.2305 89.5703 54.4883 89.5703 56.2793V66H86.4395V55.8965C86.4395 54.2832 85.291 53.2305 83.7188 53.2305C82.0781 53.2305 80.6836 54.3789 80.6836 56.5391V66H77.498ZM101.49 71.7148V50.7148H104.594V53.2168H104.84C105.359 52.2324 106.426 50.5234 109.242 50.5234C112.865 50.5234 115.586 53.3809 115.586 58.3984C115.586 63.3613 112.92 66.3008 109.229 66.3008C106.508 66.3008 105.373 64.6191 104.84 63.5938H104.676V71.7148H101.49ZM108.463 63.6074C111.006 63.6074 112.332 61.3516 112.332 58.3711C112.332 55.418 111.033 53.2031 108.463 53.2031C105.961 53.2031 104.621 55.2539 104.621 58.3711C104.621 61.4883 106.002 63.6074 108.463 63.6074ZM122.393 66.3281C119.48 66.3281 117.238 64.7012 117.238 61.6797C117.238 58.2207 120.191 57.332 123.104 57.0039C124.512 56.8398 125.4 56.7578 126.111 56.6758C126.562 56.6211 126.932 56.375 126.932 55.6367C126.932 54.0098 125.947 53.0664 124.088 53.0664C122.16 53.0664 121.066 54.0645 120.656 55.1035L117.676 54.3926C118.674 51.6719 121.23 50.5234 124.061 50.5234C126.658 50.5234 130.117 51.5215 130.117 55.8281V62.5547C130.117 63.2246 130.35 63.7441 130.869 63.7441C131.088 63.7441 131.225 63.7168 131.484 63.6211L131.84 65.8086C131.088 66.0684 130.404 66.1914 129.652 66.1914C128.436 66.1914 127.451 65.3164 127.273 63.9629H127.123C126.48 65.166 124.963 66.3281 122.393 66.3281ZM123.145 63.8398C125.51 63.8398 126.945 62.2676 126.945 60.5039V58.5625C125.824 58.7676 124.402 59.041 123.35 59.2734C121.695 59.6016 120.355 60.1895 120.355 61.6934C120.355 63.1152 121.531 63.8398 123.145 63.8398ZM136.227 56.9766V66H133.041V50.7148H136.076L136.104 53.6816C137.033 51.5215 138.633 50.5234 140.807 50.5234C143.938 50.5234 146.016 52.5469 146.016 56.293V66H142.83V56.7168C142.83 54.5703 141.641 53.2715 139.686 53.2715C137.689 53.2715 136.227 54.625 136.227 56.9766ZM148.365 71.4824L149.131 68.9258L149.5 69.0215C151.072 69.4316 152.18 69.0352 152.672 67.1348L152.973 66.0684L147.176 50.7148H150.607L153.561 59.2734C154.012 60.6133 154.326 61.9258 154.641 63.252C154.969 61.9258 155.324 60.5996 155.789 59.2734L158.811 50.7148H162.201L155.598 68.0645C154.654 70.5254 153.123 71.8242 150.553 71.8242C149.596 71.8242 148.775 71.6602 148.365 71.4824ZM50.4863 98.2734C45.332 98.2734 41.5039 94.2676 41.5039 87.8281C41.5039 81.3066 45.4004 77.3555 50.6914 77.3555C55.1211 77.3555 58.5391 80.1172 59.1953 84.0957H55.8184C55.1074 81.7715 53.3438 80.3359 50.7324 80.3359C47.3418 80.3359 44.7852 82.9883 44.7852 87.8145C44.7852 92.627 47.3008 95.293 50.8691 95.293C54.0273 95.293 56.0098 93.3242 56.1602 90.1523H51.252V87.4863H59.373V98H57.0078L56.584 93.5703C56.0234 96.168 54.2734 98.2734 50.4863 98.2734ZM61.8184 98V82.7148H64.8945V85.2031H65.0586C65.6191 83.5078 67.1367 82.4961 68.9004 82.4961C69.2832 82.4961 69.8574 82.5371 70.1855 82.5918V85.5859C69.9395 85.5176 69.2148 85.4219 68.5723 85.4219C66.5078 85.4219 65.0039 86.8301 65.0039 88.8125V98H61.8184ZM77.6758 98.3145C73.3145 98.3145 70.4844 95.1562 70.4844 90.4395C70.4844 85.6816 73.3145 82.5234 77.6758 82.5234C82.0371 82.5234 84.8809 85.6816 84.8809 90.4395C84.8809 95.1562 82.0371 98.3145 77.6758 98.3145ZM77.6758 95.6621C80.3555 95.6621 81.6406 93.2969 81.6406 90.4395C81.6406 87.5547 80.3555 85.1758 77.6758 85.1758C75.0098 85.1758 73.7246 87.541 73.7246 90.4395C73.7246 93.2969 75.0098 95.6621 77.6758 95.6621ZM89.9922 98L85.4121 82.7148H88.7754L90.3887 88.9355C90.7988 90.5762 91.291 92.5312 91.7559 94.8965C92.2207 92.5996 92.7129 90.6582 93.1504 88.9355L94.791 82.7148H97.9355L99.5352 88.9355C99.959 90.6035 100.451 92.5449 100.902 94.8555C101.367 92.5586 101.832 90.6309 102.256 88.9355L103.883 82.7148H107.273L102.68 98H99.4668L97.6211 91.5332C97.1699 89.9883 96.7461 88.1562 96.3359 86.3652C95.9121 88.1562 95.4883 90.0156 95.0508 91.5332L93.2051 98H89.9922ZM109.5 79.0781H112.686V82.7148H115.707V85.2715H112.686V93.8027C112.686 95.0059 113.15 95.5391 114.312 95.5391C114.627 95.5391 115.229 95.4434 115.584 95.3613L116.131 97.8906C115.447 98.1094 114.654 98.2051 113.93 98.2051C111.1 98.2051 109.5 96.7148 109.5 94.0762V85.2715H107.285V82.7148H109.5V79.0781ZM120.859 88.9766V98H117.674V77.6289H120.818V85.4902C121.762 83.4668 123.334 82.5234 125.439 82.5234C128.57 82.5234 130.662 84.5469 130.662 88.293V98H127.463V88.7168C127.463 86.5703 126.273 85.2715 124.318 85.2715C122.322 85.2715 120.859 86.625 120.859 88.9766Z" fill="#181E25"/>
<path d="M420.516 100V96.5547L417.299 91.2695H418.945L420.562 94.0469C420.82 94.4922 421.025 94.873 421.236 95.377C421.441 94.8613 421.646 94.4805 421.893 94.0469L423.486 91.2695H425.127L421.928 96.5547V100H420.516ZM428.016 100.135C426.07 100.135 424.875 98.8105 424.875 96.7715C424.875 94.7559 426.064 93.3672 427.91 93.3672C429.439 93.3672 430.863 94.3223 430.863 96.666V97.1289H426.24C426.287 98.3652 426.996 99.0273 428.033 99.0273C428.736 99.0273 429.264 98.7168 429.486 98.125L430.758 98.4121C430.447 99.4434 429.439 100.135 428.016 100.135ZM426.246 96.1387H429.516C429.422 95.1426 428.877 94.4746 427.916 94.4746C426.92 94.4746 426.322 95.2188 426.246 96.1387ZM434.186 100.141C432.938 100.141 431.977 99.4434 431.977 98.1484C431.977 96.666 433.242 96.2852 434.49 96.1445C435.094 96.0742 435.475 96.0391 435.779 96.0039C435.973 95.9805 436.131 95.875 436.131 95.5586C436.131 94.8613 435.709 94.457 434.912 94.457C434.086 94.457 433.617 94.8848 433.441 95.3301L432.164 95.0254C432.592 93.8594 433.688 93.3672 434.9 93.3672C436.014 93.3672 437.496 93.7949 437.496 95.6406V98.5234C437.496 98.8105 437.596 99.0332 437.818 99.0332C437.912 99.0332 437.971 99.0215 438.082 98.9805L438.234 99.918C437.912 100.029 437.619 100.082 437.297 100.082C436.775 100.082 436.354 99.707 436.277 99.127H436.213C435.938 99.6426 435.287 100.141 434.186 100.141ZM434.508 99.0742C435.521 99.0742 436.137 98.4004 436.137 97.6445V96.8125C435.656 96.9004 435.047 97.0176 434.596 97.1172C433.887 97.2578 433.312 97.5098 433.312 98.1543C433.312 98.7637 433.816 99.0742 434.508 99.0742ZM439.178 100V93.4492H440.496V94.5156H440.566C440.807 93.7891 441.457 93.3555 442.213 93.3555C442.377 93.3555 442.623 93.373 442.764 93.3965V94.6797C442.658 94.6504 442.348 94.6094 442.072 94.6094C441.188 94.6094 440.543 95.2129 440.543 96.0625V100H439.178ZM445.418 91.2695V100H444.053V91.2695H445.418ZM447.123 102.35L447.451 101.254L447.609 101.295C448.283 101.471 448.758 101.301 448.969 100.486L449.098 100.029L446.613 93.4492H448.084L449.35 97.1172C449.543 97.6914 449.678 98.2539 449.812 98.8223C449.953 98.2539 450.105 97.6855 450.305 97.1172L451.6 93.4492H453.053L450.223 100.885C449.818 101.939 449.162 102.496 448.061 102.496C447.65 102.496 447.299 102.426 447.123 102.35Z" fill="#454545"/>
<path d="M461.5 94.25L465 97.75L468.5 94.25" stroke="#7D7D7D" stroke-linecap="round" stroke-linejoin="round"/>
<line x1="96.5" y1="280" x2="96.5" y2="152" stroke="#F1F1F1"/>
<path d="M83.9023 308V307.197L86.8027 304.051C87.7695 303.002 88.2617 302.404 88.2617 301.602C88.2617 300.688 87.5527 300.119 86.6211 300.119C85.625 300.119 84.9922 300.764 84.9922 301.748H83.9258C83.9258 300.201 85.0977 299.152 86.6504 299.152C88.209 299.152 89.3164 300.225 89.3164 301.59C89.3164 302.533 88.8887 303.277 87.3477 304.918L85.4375 306.951V307.021H89.4629V308H83.9023ZM94.1094 308.117C92.1641 308.117 91.0391 306.488 91.0391 303.641C91.0391 300.811 92.1758 299.152 94.1094 299.152C96.043 299.152 97.1797 300.811 97.1797 303.641C97.1797 306.482 96.0605 308.117 94.1094 308.117ZM94.1094 307.145C95.3867 307.145 96.1074 305.855 96.1074 303.641C96.1074 301.414 95.3867 300.119 94.1094 300.119C92.832 300.119 92.1113 301.42 92.1113 303.641C92.1113 305.855 92.832 307.145 94.1094 307.145ZM100.525 308V300.84C100.232 301.197 99.5176 301.502 98.6328 301.502V300.582H98.668C99.582 300.582 100.379 300.043 100.666 299.27H101.621V308H100.525ZM106.461 308.117C105.002 308.117 103.391 307.186 103.391 303.969C103.391 300.898 104.615 299.152 106.596 299.152C108.061 299.152 109.121 300.096 109.332 301.467H108.242C108.049 300.711 107.504 300.137 106.596 300.137C105.254 300.137 104.445 301.355 104.445 303.453H104.516C104.984 302.727 105.758 302.293 106.666 302.293C108.16 302.293 109.402 303.494 109.402 305.182C109.402 306.811 108.242 308.117 106.461 308.117ZM106.461 307.139C107.51 307.139 108.324 306.271 108.324 305.182C108.324 304.115 107.545 303.26 106.49 303.26C105.43 303.26 104.604 304.174 104.604 305.193C104.604 306.225 105.389 307.139 106.461 307.139Z" fill="#7D7D7D"/>
<line x1="145" y1="280" x2="145" y2="152" stroke="#F1F1F1"/>
<path d="M132.902 308V307.197L135.803 304.051C136.77 303.002 137.262 302.404 137.262 301.602C137.262 300.688 136.553 300.119 135.621 300.119C134.625 300.119 133.992 300.764 133.992 301.748H132.926C132.926 300.201 134.098 299.152 135.65 299.152C137.209 299.152 138.316 300.225 138.316 301.59C138.316 302.533 137.889 303.277 136.348 304.918L134.438 306.951V307.021H138.463V308H132.902ZM143.109 308.117C141.164 308.117 140.039 306.488 140.039 303.641C140.039 300.811 141.176 299.152 143.109 299.152C145.043 299.152 146.18 300.811 146.18 303.641C146.18 306.482 145.061 308.117 143.109 308.117ZM143.109 307.145C144.387 307.145 145.107 305.855 145.107 303.641C145.107 301.414 144.387 300.119 143.109 300.119C141.832 300.119 141.111 301.42 141.111 303.641C141.111 305.855 141.832 307.145 143.109 307.145ZM149.525 308V300.84C149.232 301.197 148.518 301.502 147.633 301.502V300.582H147.668C148.582 300.582 149.379 300.043 149.666 299.27H150.621V308H149.525ZM152.848 308L156.727 300.318V300.248H152.25V299.27H157.893V300.307L154.02 308H152.848Z" fill="#7D7D7D"/>
<line x1="193.5" y1="280" x2="193.5" y2="152" stroke="#F1F1F1"/>
<path d="M180.902 308V307.197L183.803 304.051C184.77 303.002 185.262 302.404 185.262 301.602C185.262 300.688 184.553 300.119 183.621 300.119C182.625 300.119 181.992 300.764 181.992 301.748H180.926C180.926 300.201 182.098 299.152 183.65 299.152C185.209 299.152 186.316 300.225 186.316 301.59C186.316 302.533 185.889 303.277 184.348 304.918L182.438 306.951V307.021H186.463V308H180.902ZM191.109 308.117C189.164 308.117 188.039 306.488 188.039 303.641C188.039 300.811 189.176 299.152 191.109 299.152C193.043 299.152 194.18 300.811 194.18 303.641C194.18 306.482 193.061 308.117 191.109 308.117ZM191.109 307.145C192.387 307.145 193.107 305.855 193.107 303.641C193.107 301.414 192.387 300.119 191.109 300.119C189.832 300.119 189.111 301.42 189.111 303.641C189.111 305.855 189.832 307.145 191.109 307.145ZM197.525 308V300.84C197.232 301.197 196.518 301.502 195.633 301.502V300.582H195.668C196.582 300.582 197.379 300.043 197.666 299.27H198.621V308H197.525ZM203.385 308.117C201.609 308.117 200.391 307.104 200.391 305.68C200.391 304.578 201.117 303.641 202.096 303.465V303.418C201.246 303.201 200.707 302.398 200.707 301.473C200.707 300.143 201.832 299.152 203.385 299.152C204.914 299.152 206.057 300.143 206.057 301.473C206.057 302.398 205.506 303.201 204.68 303.418V303.465C205.629 303.641 206.385 304.578 206.385 305.68C206.385 307.104 205.143 308.117 203.385 308.117ZM203.385 307.15C204.539 307.15 205.271 306.547 205.271 305.621C205.271 304.654 204.463 303.963 203.385 303.963C202.283 303.963 201.486 304.654 201.486 305.621C201.486 306.547 202.207 307.15 203.385 307.15ZM203.385 303.031C204.305 303.031 204.979 302.439 204.979 301.555C204.979 300.682 204.334 300.113 203.385 300.113C202.418 300.113 201.785 300.682 201.785 301.555C201.785 302.439 202.441 303.031 203.385 303.031Z" fill="#7D7D7D"/>
<line x1="242.5" y1="280" x2="242.5" y2="152" stroke="#F1F1F1"/>
<path d="M229.902 308V307.197L232.803 304.051C233.77 303.002 234.262 302.404 234.262 301.602C234.262 300.688 233.553 300.119 232.621 300.119C231.625 300.119 230.992 300.764 230.992 301.748H229.926C229.926 300.201 231.098 299.152 232.65 299.152C234.209 299.152 235.316 300.225 235.316 301.59C235.316 302.533 234.889 303.277 233.348 304.918L231.438 306.951V307.021H235.463V308H229.902ZM240.109 308.117C238.164 308.117 237.039 306.488 237.039 303.641C237.039 300.811 238.176 299.152 240.109 299.152C242.043 299.152 243.18 300.811 243.18 303.641C243.18 306.482 242.061 308.117 240.109 308.117ZM240.109 307.145C241.387 307.145 242.107 305.855 242.107 303.641C242.107 301.414 241.387 300.119 240.109 300.119C238.832 300.119 238.111 301.42 238.111 303.641C238.111 305.855 238.832 307.145 240.109 307.145ZM246.525 308V300.84C246.232 301.197 245.518 301.502 244.633 301.502V300.582H244.668C245.582 300.582 246.379 300.043 246.666 299.27H247.621V308H246.525ZM252.209 308.117C250.727 308.117 249.666 307.174 249.461 305.779H250.562C250.744 306.553 251.289 307.133 252.209 307.133C253.539 307.133 254.359 305.92 254.359 303.805H254.289C253.82 304.52 253.053 304.971 252.139 304.971C250.633 304.971 249.391 303.764 249.391 302.082C249.391 300.453 250.562 299.123 252.355 299.152C253.791 299.176 255.402 300.078 255.402 303.289C255.402 306.377 254.184 308.117 252.209 308.117ZM252.303 303.998C253.363 303.998 254.201 303.078 254.201 302.053C254.201 301.051 253.41 300.131 252.338 300.131C251.283 300.131 250.48 300.998 250.48 302.076C250.48 303.148 251.248 303.998 252.303 303.998Z" fill="#7D7D7D"/>
<line x1="292.5" y1="280" x2="292.5" y2="152" stroke="#F1F1F1"/>
<path d="M278.902 308V307.197L281.803 304.051C282.77 303.002 283.262 302.404 283.262 301.602C283.262 300.688 282.553 300.119 281.621 300.119C280.625 300.119 279.992 300.764 279.992 301.748H278.926C278.926 300.201 280.098 299.152 281.65 299.152C283.209 299.152 284.316 300.225 284.316 301.59C284.316 302.533 283.889 303.277 282.348 304.918L280.438 306.951V307.021H284.463V308H278.902ZM289.109 308.117C287.164 308.117 286.039 306.488 286.039 303.641C286.039 300.811 287.176 299.152 289.109 299.152C291.043 299.152 292.18 300.811 292.18 303.641C292.18 306.482 291.061 308.117 289.109 308.117ZM289.109 307.145C290.387 307.145 291.107 305.855 291.107 303.641C291.107 301.414 290.387 300.119 289.109 300.119C287.832 300.119 287.111 301.42 287.111 303.641C287.111 305.855 287.832 307.145 289.109 307.145ZM293.797 308V307.197L296.697 304.051C297.664 303.002 298.156 302.404 298.156 301.602C298.156 300.688 297.447 300.119 296.516 300.119C295.52 300.119 294.887 300.764 294.887 301.748H293.82C293.82 300.201 294.992 299.152 296.545 299.152C298.104 299.152 299.211 300.225 299.211 301.59C299.211 302.533 298.783 303.277 297.242 304.918L295.332 306.951V307.021H299.357V308H293.797ZM304.004 308.117C302.059 308.117 300.934 306.488 300.934 303.641C300.934 300.811 302.07 299.152 304.004 299.152C305.938 299.152 307.074 300.811 307.074 303.641C307.074 306.482 305.955 308.117 304.004 308.117ZM304.004 307.145C305.281 307.145 306.002 305.855 306.002 303.641C306.002 301.414 305.281 300.119 304.004 300.119C302.727 300.119 302.006 301.42 302.006 303.641C302.006 305.855 302.727 307.145 304.004 307.145Z" fill="#7D7D7D"/>
<line x1="342" y1="280" x2="342" y2="152" stroke="#F1F1F1"/>
<path d="M329.902 308V307.197L332.803 304.051C333.77 303.002 334.262 302.404 334.262 301.602C334.262 300.688 333.553 300.119 332.621 300.119C331.625 300.119 330.992 300.764 330.992 301.748H329.926C329.926 300.201 331.098 299.152 332.65 299.152C334.209 299.152 335.316 300.225 335.316 301.59C335.316 302.533 334.889 303.277 333.348 304.918L331.438 306.951V307.021H335.463V308H329.902ZM340.109 308.117C338.164 308.117 337.039 306.488 337.039 303.641C337.039 300.811 338.176 299.152 340.109 299.152C342.043 299.152 343.18 300.811 343.18 303.641C343.18 306.482 342.061 308.117 340.109 308.117ZM340.109 307.145C341.387 307.145 342.107 305.855 342.107 303.641C342.107 301.414 341.387 300.119 340.109 300.119C338.832 300.119 338.111 301.42 338.111 303.641C338.111 305.855 338.832 307.145 340.109 307.145ZM344.797 308V307.197L347.697 304.051C348.664 303.002 349.156 302.404 349.156 301.602C349.156 300.688 348.447 300.119 347.516 300.119C346.52 300.119 345.887 300.764 345.887 301.748H344.82C344.82 300.201 345.992 299.152 347.545 299.152C349.104 299.152 350.211 300.225 350.211 301.59C350.211 302.533 349.783 303.277 348.242 304.918L346.332 306.951V307.021H350.357V308H344.797ZM353.85 308V300.84C353.557 301.197 352.842 301.502 351.957 301.502V300.582H351.992C352.906 300.582 353.703 300.043 353.99 299.27H354.945V308H353.85Z" fill="#7D7D7D"/>
<line x1="391.5" y1="280" x2="391.5" y2="152" stroke="#F1F1F1"/>
<path d="M377.902 308V307.197L380.803 304.051C381.77 303.002 382.262 302.404 382.262 301.602C382.262 300.688 381.553 300.119 380.621 300.119C379.625 300.119 378.992 300.764 378.992 301.748H377.926C377.926 300.201 379.098 299.152 380.65 299.152C382.209 299.152 383.316 300.225 383.316 301.59C383.316 302.533 382.889 303.277 381.348 304.918L379.438 306.951V307.021H383.463V308H377.902ZM388.109 308.117C386.164 308.117 385.039 306.488 385.039 303.641C385.039 300.811 386.176 299.152 388.109 299.152C390.043 299.152 391.18 300.811 391.18 303.641C391.18 306.482 390.061 308.117 388.109 308.117ZM388.109 307.145C389.387 307.145 390.107 305.855 390.107 303.641C390.107 301.414 389.387 300.119 388.109 300.119C386.832 300.119 386.111 301.42 386.111 303.641C386.111 305.855 386.832 307.145 388.109 307.145ZM392.797 308V307.197L395.697 304.051C396.664 303.002 397.156 302.404 397.156 301.602C397.156 300.688 396.447 300.119 395.516 300.119C394.52 300.119 393.887 300.764 393.887 301.748H392.82C392.82 300.201 393.992 299.152 395.545 299.152C397.104 299.152 398.211 300.225 398.211 301.59C398.211 302.533 397.783 303.277 396.242 304.918L394.332 306.951V307.021H398.357V308H392.797ZM400.121 308V307.197L403.021 304.051C403.988 303.002 404.48 302.404 404.48 301.602C404.48 300.688 403.771 300.119 402.84 300.119C401.844 300.119 401.211 300.764 401.211 301.748H400.145C400.145 300.201 401.316 299.152 402.869 299.152C404.428 299.152 405.535 300.225 405.535 301.59C405.535 302.533 405.107 303.277 403.566 304.918L401.656 306.951V307.021H405.682V308H400.121Z" fill="#7D7D7D"/>
<line x1="442.5" y1="280" x2="442.5" y2="152" stroke="#F1F1F1"/>
<path d="M428.902 308V307.197L431.803 304.051C432.77 303.002 433.262 302.404 433.262 301.602C433.262 300.688 432.553 300.119 431.621 300.119C430.625 300.119 429.992 300.764 429.992 301.748H428.926C428.926 300.201 430.098 299.152 431.65 299.152C433.209 299.152 434.316 300.225 434.316 301.59C434.316 302.533 433.889 303.277 432.348 304.918L430.438 306.951V307.021H434.463V308H428.902ZM439.109 308.117C437.164 308.117 436.039 306.488 436.039 303.641C436.039 300.811 437.176 299.152 439.109 299.152C441.043 299.152 442.18 300.811 442.18 303.641C442.18 306.482 441.061 308.117 439.109 308.117ZM439.109 307.145C440.387 307.145 441.107 305.855 441.107 303.641C441.107 301.414 440.387 300.119 439.109 300.119C437.832 300.119 437.111 301.42 437.111 303.641C437.111 305.855 437.832 307.145 439.109 307.145ZM443.797 308V307.197L446.697 304.051C447.664 303.002 448.156 302.404 448.156 301.602C448.156 300.688 447.447 300.119 446.516 300.119C445.52 300.119 444.887 300.764 444.887 301.748H443.82C443.82 300.201 444.992 299.152 446.545 299.152C448.104 299.152 449.211 300.225 449.211 301.59C449.211 302.533 448.783 303.277 447.242 304.918L445.332 306.951V307.021H449.357V308H443.797ZM453.939 308.117C452.229 308.117 451.01 307.18 450.951 305.797H452.076C452.141 306.629 452.926 307.139 453.922 307.139C455.018 307.139 455.814 306.523 455.814 305.615C455.814 304.672 455.082 304.01 453.787 304.01H453.078V303.043H453.787C454.807 303.043 455.51 302.457 455.51 301.555C455.51 300.688 454.9 300.119 453.951 300.119C453.061 300.119 452.246 300.617 452.211 301.467H451.139C451.186 300.096 452.439 299.152 453.975 299.152C455.604 299.152 456.6 300.254 456.6 301.496C456.6 302.48 456.043 303.201 455.152 303.465V303.535C456.266 303.717 456.916 304.525 456.916 305.627C456.916 307.057 455.65 308.117 453.939 308.117Z" fill="#7D7D7D"/>
<path d="M42.6309 164V156.84C42.3379 157.197 41.623 157.502 40.7383 157.502V156.582H40.7734C41.6875 156.582 42.4844 156.043 42.7715 155.27H43.7266V164H42.6309ZM48.5664 164.117C46.6211 164.117 45.4961 162.488 45.4961 159.641C45.4961 156.811 46.6328 155.152 48.5664 155.152C50.5 155.152 51.6367 156.811 51.6367 159.641C51.6367 162.482 50.5176 164.117 48.5664 164.117ZM48.5664 163.145C49.8438 163.145 50.5645 161.855 50.5645 159.641C50.5645 157.414 49.8438 156.119 48.5664 156.119C47.2891 156.119 46.5684 157.42 46.5684 159.641C46.5684 161.855 47.2891 163.145 48.5664 163.145ZM56.1367 164.117C54.1914 164.117 53.0664 162.488 53.0664 159.641C53.0664 156.811 54.2031 155.152 56.1367 155.152C58.0703 155.152 59.207 156.811 59.207 159.641C59.207 162.482 58.0879 164.117 56.1367 164.117ZM56.1367 163.145C57.4141 163.145 58.1348 161.855 58.1348 159.641C58.1348 157.414 57.4141 156.119 56.1367 156.119C54.8594 156.119 54.1387 157.42 54.1387 159.641C54.1387 161.855 54.8594 163.145 56.1367 163.145ZM60.8477 164V155.27H61.9023V160.338H62.0312L64.832 157.449H66.1387L63.3965 160.262L66.3438 164H64.9902L62.5938 160.936L61.9023 161.586V164H60.8477Z" fill="#7D7D7D"/>
<path d="M83 159.391H472.5" stroke="#F1F1F1"/>
<path d="M43.4922 194.367C41.957 194.367 40.8086 193.383 40.75 192.047H41.8281C41.8984 192.826 42.6133 193.389 43.4922 193.389C44.5469 193.389 45.3145 192.586 45.3145 191.479C45.3145 190.354 44.5176 189.516 43.4219 189.516C42.8828 189.516 42.2734 189.709 41.9277 189.973L40.8848 189.844L41.4004 185.52H45.9941V186.498H42.3379L42.0391 189.047H42.0859C42.4434 188.748 43.0234 188.537 43.627 188.537C45.2266 188.537 46.4043 189.773 46.4043 191.461C46.4043 193.137 45.1738 194.367 43.4922 194.367ZM50.9102 194.367C48.9648 194.367 47.8398 192.738 47.8398 189.891C47.8398 187.061 48.9766 185.402 50.9102 185.402C52.8438 185.402 53.9805 187.061 53.9805 189.891C53.9805 192.732 52.8613 194.367 50.9102 194.367ZM50.9102 193.395C52.1875 193.395 52.9082 192.105 52.9082 189.891C52.9082 187.664 52.1875 186.369 50.9102 186.369C49.6328 186.369 48.9121 187.67 48.9121 189.891C48.9121 192.105 49.6328 193.395 50.9102 193.395ZM55.6211 194.25V185.52H56.6758V190.588H56.8047L59.6055 187.699H60.9121L58.1699 190.512L61.1172 194.25H59.7637L57.3672 191.186L56.6758 191.836V194.25H55.6211Z" fill="#7D7D7D"/>
<path d="M83 189.391H472.5" stroke="#F1F1F1"/>
<path d="M40.9023 224.5V223.697L43.8027 220.551C44.7695 219.502 45.2617 218.904 45.2617 218.102C45.2617 217.188 44.5527 216.619 43.6211 216.619C42.625 216.619 41.9922 217.264 41.9922 218.248H40.9258C40.9258 216.701 42.0977 215.652 43.6504 215.652C45.209 215.652 46.3164 216.725 46.3164 218.09C46.3164 219.033 45.8887 219.777 44.3477 221.418L42.4375 223.451V223.521H46.4629V224.5H40.9023ZM51.1094 224.617C49.1641 224.617 48.0391 222.988 48.0391 220.141C48.0391 217.311 49.1758 215.652 51.1094 215.652C53.043 215.652 54.1797 217.311 54.1797 220.141C54.1797 222.982 53.0605 224.617 51.1094 224.617ZM51.1094 223.645C52.3867 223.645 53.1074 222.355 53.1074 220.141C53.1074 217.914 52.3867 216.619 51.1094 216.619C49.832 216.619 49.1113 217.92 49.1113 220.141C49.1113 222.355 49.832 223.645 51.1094 223.645ZM55.8203 224.5V215.77H56.875V220.838H57.0039L59.8047 217.949H61.1113L58.3691 220.762L61.3164 224.5H59.9629L57.5664 221.436L56.875 222.086V224.5H55.8203Z" fill="#7D7D7D"/>
<path d="M83 220.391H472.5" stroke="#F1F1F1"/>
<path d="M42.6309 254.75V247.59C42.3379 247.947 41.623 248.252 40.7383 248.252V247.332H40.7734C41.6875 247.332 42.4844 246.793 42.7715 246.02H43.7266V254.75H42.6309ZM48.5664 254.867C46.6211 254.867 45.4961 253.238 45.4961 250.391C45.4961 247.561 46.6328 245.902 48.5664 245.902C50.5 245.902 51.6367 247.561 51.6367 250.391C51.6367 253.232 50.5176 254.867 48.5664 254.867ZM48.5664 253.895C49.8438 253.895 50.5645 252.605 50.5645 250.391C50.5645 248.164 49.8438 246.869 48.5664 246.869C47.2891 246.869 46.5684 248.17 46.5684 250.391C46.5684 252.605 47.2891 253.895 48.5664 253.895ZM53.2773 254.75V246.02H54.332V251.088H54.4609L57.2617 248.199H58.5684L55.8262 251.012L58.7734 254.75H57.4199L55.0234 251.686L54.332 252.336V254.75H53.2773Z" fill="#7D7D7D"/>
<path d="M83 250.391H472.5" stroke="#F1F1F1"/>
<path d="M43.7852 285.117C41.8398 285.117 40.7148 283.488 40.7148 280.641C40.7148 277.811 41.8516 276.152 43.7852 276.152C45.7188 276.152 46.8555 277.811 46.8555 280.641C46.8555 283.482 45.7363 285.117 43.7852 285.117ZM43.7852 284.145C45.0625 284.145 45.7832 282.855 45.7832 280.641C45.7832 278.414 45.0625 277.119 43.7852 277.119C42.5078 277.119 41.7871 278.42 41.7871 280.641C41.7871 282.855 42.5078 284.145 43.7852 284.145Z" fill="#7D7D7D"/>
<path d="M83 280.391H473.13" stroke="#F1F1F1"/>
<mask id="mask0_16060_8260" style="mask-type:alpha" maskUnits="userSpaceOnUse" x="97" y="152" width="375" height="129">
<rect x="97" y="152.391" width="375" height="128" fill="#D9D9D9"/>
</mask>
<g mask="url(#mask0_16060_8260)">
<path d="M202.089 204.891L148.848 250.391L96.0703 260.891V281.391L472.459 281.891V159.391L417.83 184.391L363.663 237.899L309.496 257.399L255.793 184.391L202.089 204.891Z" fill="url(#paint0_linear_16060_8260)" fill-opacity="0.4" stroke="#181E25" stroke-dasharray="2 2"/>
</g>
</g>
<defs>
<linearGradient id="paint0_linear_16060_8260" x1="284.265" y1="159.391" x2="284.265" y2="281.391" gradientUnits="userSpaceOnUse">
<stop stop-color="#D6FD70"/>
<stop offset="1" stop-color="#D6FD70" stop-opacity="0.16"/>
</linearGradient>
<clipPath id="clip0_16060_8260">
<path d="M0 8C0 3.58173 3.58172 0 8 0H504C508.418 0 512 3.58172 512 8V336C512 340.418 508.418 344 504 344H8C3.58172 344 0 340.418 0 336V8Z" fill="white"/>
</clipPath>
</defs>
</svg>
